<?xml version="1.0" standalone="no"?>
<!DOCTYPE svg PUBLIC "-//W3C//DTD SVG 20010904//EN"
 "http://www.w3.org/TR/2001/REC-SVG-20010904/DTD/svg10.dtd">
<svg version="1.0" xmlns="http://www.w3.org/2000/svg"
 width="612.000000pt" height="612.000000pt" viewBox="0 0 612.000000 612.000000"
 preserveAspectRatio="xMidYMid meet">

<g transform="translate(0.000000,612.000000) scale(0.100000,-0.100000)"
fill="#000000" stroke="none">
<path d="M3155 4520 c-128 -21 -344 -54 -990 -150 -502 -75 -533 -82 -578
-142 -54 -71 -54 -75 12 -518 257 -1716 300 -1989 316 -2023 28 -60 85 -98
153 -104 66 -5 1640 227 1696 251 42 17 85 60 102 102 19 45 18 101 -6 251
-11 71 -70 461 -130 868 -61 407 -115 767 -120 800 -5 33 -26 168 -46 300 -20
132 -42 254 -49 270 -16 39 -62 84 -102 101 -42 18 -122 16 -258 -6z m89 -422
c22 -31 20 -91 -3 -112 -18 -17 -42 -21 -381 -71 -91 -13 -330 -49 -532 -80
-407 -61 -410 -61 -427 2 -11 40 -1 77 26 91 10 6 126 26 258 46 132 20 398
61 590 90 409 63 447 65 469 34z m-344 -474 c292 -92 467 -409 390 -708 -29
-113 -73 -190 -160 -277 -120 -120 -252 -174 -425 -173 -144 1 -268 49 -392
150 -55 45 -135 165 -163 245 -31 88 -38 250 -16 339 86 341 429 531 766 424z
m188 -1356 c14 -14 16 -44 3 -52 -12 -8 -456 -76 -492 -76 -33 0 -49 34 -28
55 8 7 114 29 239 48 263 41 262 41 278 25z m220 -160 c2 -18 -2 -28 -15 -32
-31 -10 -816 -126 -851 -126 -21 0 -35 6 -39 16 -16 43 0 47 418 111 222 34
422 61 444 60 35 -2 40 -5 43 -29z"/>
<path d="M2597 3523 c-30 -46 -57 -122 -57 -165 l0 -31 73 6 c82 7 165 23 186
36 11 7 7 21 -23 69 -43 71 -97 122 -130 122 -16 0 -32 -12 -49 -37z"/>
<path d="M2823 3529 c13 -19 34 -53 46 -77 21 -41 22 -42 49 -28 15 8 38 25
50 39 l24 25 -64 30 c-34 16 -78 33 -97 37 l-34 7 26 -33z"/>
<path d="M2429 3481 c-24 -15 -57 -42 -73 -59 l-29 -31 47 -21 c66 -28 72 -26
80 20 3 23 12 59 20 80 8 22 11 40 7 40 -4 0 -27 -13 -52 -29z"/>
<path d="M3046 3411 c-11 -12 -41 -35 -67 -52 -27 -17 -49 -34 -49 -38 0 -3 9
-43 21 -88 25 -94 19 -91 139 -73 101 16 110 19 110 39 0 27 -65 150 -103 194
-33 38 -33 38 -51 18z"/>
<path d="M2252 3273 c-25 -57 -38 -107 -47 -185 -7 -52 -6 -58 11 -57 46 1
229 35 227 42 -2 4 -3 47 -3 95 l0 89 -42 13 c-24 7 -60 21 -80 31 -21 11 -39
19 -41 19 -2 0 -13 -21 -25 -47z"/>
<path d="M2790 3274 c-25 -8 -93 -20 -152 -26 l-108 -11 0 -78 c0 -57 4 -79
13 -79 29 0 330 49 335 54 7 8 -28 156 -36 155 -4 -1 -27 -7 -52 -15z"/>
<path d="M3083 3073 l-93 -15 0 -94 c0 -94 0 -95 28 -106 15 -6 50 -21 79 -34
l52 -22 14 21 c26 40 48 121 54 195 7 84 19 79 -134 55z"/>
<path d="M2735 3020 c-170 -26 -185 -30 -185 -42 0 -12 30 -130 35 -139 2 -3
36 2 75 12 39 10 112 21 162 25 l90 7 -6 51 c-3 28 -6 63 -6 79 0 32 2 32
-165 7z"/>
<path d="M2335 2959 c-60 -10 -111 -18 -113 -18 -1 -1 1 -13 4 -28 10 -43 63
-138 99 -180 l33 -38 29 23 c15 12 46 34 68 48 22 15 42 28 44 30 6 5 -41 184
-48 183 -3 -1 -55 -10 -116 -20z"/>
<path d="M2755 2783 c-16 -2 -54 -11 -83 -19 l-52 -15 21 -42 c48 -94 117
-155 159 -142 27 9 66 77 84 150 9 32 16 63 16 67 0 8 -88 9 -145 1z"/>
<path d="M2986 2758 c-19 -67 -36 -141 -33 -145 6 -6 130 90 134 104 4 12 -31
34 -75 47 -14 5 -23 3 -26 -6z"/>
<path d="M2482 2679 c-23 -17 -42 -34 -42 -39 0 -12 40 -35 103 -58 88 -33 91
-30 40 53 -25 41 -49 75 -53 75 -3 0 -25 -14 -48 -31z"/>
<path d="M3645 4440 c-3 -4 52 -383 120 -841 163 -1091 183 -1221 196 -1300
l10 -66 76 -6 c85 -6 116 -24 96 -55 -9 -14 -24 -17 -87 -15 l-75 3 5 -33 c13
-81 10 -77 65 -77 59 0 89 -13 89 -39 0 -31 -22 -41 -78 -34 l-52 6 0 -47 c0
-58 -22 -111 -62 -153 -39 -41 -70 -51 -219 -73 -66 -10 -122 -19 -124 -22 -6
-5 528 -51 578 -50 85 4 158 69 177 158 6 27 26 227 45 444 19 217 66 746 105
1175 55 621 67 789 59 819 -15 55 -80 121 -132 135 -23 6 -197 24 -387 41
-190 16 -358 31 -373 33 -15 2 -30 0 -32 -3z"/>
</g>
</svg>
